<?xml version="1.0" encoding="UTF-8" standalone="no"?>
<!-- Created with Inkscape (http://www.inkscape.org/) -->

<svg
   xmlns:dc="http://purl.org/dc/elements/1.1/"
   xmlns:cc="http://creativecommons.org/ns#"
   xmlns:rdf="http://www.w3.org/1999/02/22-rdf-syntax-ns#"
   xmlns:svg="http://www.w3.org/2000/svg"
   xmlns="http://www.w3.org/2000/svg"
   xmlns:xlink="http://www.w3.org/1999/xlink"
   xmlns:sodipodi="http://sodipodi.sourceforge.net/DTD/sodipodi-0.dtd"
   xmlns:inkscape="http://www.inkscape.org/namespaces/inkscape"
   width="256"
   height="256"
   viewBox="0 0 67.733334 67.733334"
   version="1.1"
   id="svg199"
   inkscape:version="0.92.1 r"
   sodipodi:docname="impact_explosion.svg">
  <defs
     id="defs193">
    <linearGradient
       id="linearGradient5107"
       inkscape:collect="always">
      <stop
         id="stop5103"
         offset="0"
         style="stop-color:#615a49;stop-opacity:1" />
      <stop
         id="stop5105"
         offset="1"
         style="stop-color:#3c352d;stop-opacity:1" />
    </linearGradient>
    <radialGradient
       inkscape:collect="always"
       xlink:href="#linearGradient5107"
       id="radialGradient6915"
       gradientUnits="userSpaceOnUse"
       gradientTransform="matrix(0.51716543,0,0,0.4193074,54.23786,57.403709)"
       cx="112.33218"
       cy="98.853867"
       fx="112.33218"
       fy="98.853867"
       r="79.774078" />
    <filter
       inkscape:collect="always"
       style="color-interpolation-filters:sRGB"
       id="filter6853"
       x="-0.060604278"
       width="1.1212086"
       y="-0.059407653"
       height="1.1188153">
      <feGaussianBlur
         inkscape:collect="always"
         stdDeviation="0.55084269"
         id="feGaussianBlur6855" />
    </filter>
    <filter
       inkscape:collect="always"
       style="color-interpolation-filters:sRGB"
       id="filter6857"
       x="-0.081193593"
       width="1.1623872"
       y="-0.074904863"
       height="1.1498097">
      <feGaussianBlur
         inkscape:collect="always"
         stdDeviation="0.55084269"
         id="feGaussianBlur6859" />
    </filter>
  </defs>
  <sodipodi:namedview
     id="base"
     pagecolor="#ffffff"
     bordercolor="#666666"
     borderopacity="1.0"
     inkscape:pageopacity="0.0"
     inkscape:pageshadow="2"
     inkscape:zoom="2"
     inkscape:cx="147.30688"
     inkscape:cy="101.20423"
     inkscape:document-units="mm"
     inkscape:current-layer="layer9"
     showgrid="false"
     fit-margin-top="0"
     fit-margin-left="0"
     fit-margin-right="0"
     fit-margin-bottom="0"
     showborder="true"
     borderlayer="true"
     showguides="false"
     inkscape:lockguides="true"
     inkscape:window-width="1878"
     inkscape:window-height="1008"
     inkscape:window-x="20"
     inkscape:window-y="50"
     inkscape:window-maximized="0"
     units="px"
     inkscape:snap-nodes="false"
     inkscape:snap-global="false" />
  <metadata
     id="metadata196">
    <rdf:RDF>
      <cc:Work
         rdf:about="">
        <dc:format>image/svg+xml</dc:format>
        <dc:type
           rdf:resource="http://purl.org/dc/dcmitype/StillImage" />
        <dc:title></dc:title>
      </cc:Work>
    </rdf:RDF>
  </metadata>
  <g
     inkscape:groupmode="layer"
     id="layer2"
     inkscape:label="1"
     transform="translate(0,-143.17739)"
     style="display:inline">
    <path
       sodipodi:type="inkscape:offset"
       inkscape:radius="0"
       inkscape:original="M 32.675781 162.0957 C 32.044515 162.0957 31.664695 163.76891 31.353516 164.08008 C 31.074684 164.35891 30.460674 162.92157 30.427734 162.88867 C 30.398931 162.85987 29.427401 165.28582 29.369141 165.40234 C 28.354739 167.43114 27.648438 163.73107 27.648438 166.32812 L 27.648438 167.91602 C 24.012673 166.46172 27.834581 170.16406 26.722656 170.16406 C 25.938265 170.16406 23.219312 169.03851 22.753906 169.50391 C 22.722291 169.53553 24.268078 171.11403 25.134766 172.41406 C 27.495403 175.95501 21.835418 173.67357 25.664062 175.58789 C 26.389942 175.95083 29.13647 176.98603 28.177734 177.70508 C 27.40029 178.28817 25.35039 179.29297 24.341797 179.29297 C 23.810797 179.29297 25.398688 179.42578 25.929688 179.42578 C 26.604582 179.42578 30.300379 178.90195 30.691406 179.29297 C 31.154205 179.75577 29.322949 182.55341 30.294922 183.52539 C 30.756747 183.98721 31.386938 180.51583 31.486328 180.61523 C 31.896771 181.02567 32.808186 184.32052 33.601562 183.92383 C 35.127287 183.16097 34.780219 181.13173 34.792969 181.14453 C 35.552114 181.90367 36.207216 182.69969 37.041016 183.39453 C 39.504467 185.4474 38.887743 181.54781 39.6875 180.74805 C 40.103432 180.33212 43.631544 184.7415 44.052734 184.32031 C 45.174748 183.19829 41.363271 179.11526 42.068359 177.70508 C 42.294054 177.25369 43.8094 178.34489 44.052734 178.10156 C 44.537763 177.61653 40.541018 172.87109 40.083984 172.41406 C 39.83757 172.16764 43.69347 170.90892 44.052734 170.69336 C 45.997366 169.52658 41.804688 169.55272 41.804688 169.10742 C 41.804688 168.39848 44.150123 166.82199 43.392578 166.06445 C 43.10672 165.77859 40.05953 168.44531 39.6875 168.44531 C 39.686097 168.44531 39.558388 167.15215 39.554688 167.12305 C 39.422961 166.06924 38.70402 164.69799 38.365234 163.68164 C 38.250085 163.33619 35.720654 164.87305 35.455078 164.87305 C 34.190965 164.87305 33.046037 162.0957 32.675781 162.0957 z "
       style="fill:#5f5031;fill-opacity:1;fill-rule:evenodd;stroke:none;stroke-width:0.26458332px;stroke-linecap:butt;stroke-linejoin:miter;stroke-opacity:1;filter:url(#filter6853)"
       id="path6652"
       d="m 32.675781,162.0957 c -0.631266,0 -1.011086,1.67321 -1.322265,1.98438 -0.278832,0.27883 -0.892842,-1.15851 -0.925782,-1.19141 -0.0288,-0.0288 -1.000333,2.39715 -1.058593,2.51367 -1.014402,2.0288 -1.720703,-1.67127 -1.720703,0.92578 v 1.5879 c -3.635765,-1.4543 0.186143,2.24804 -0.925782,2.24804 -0.784391,0 -3.503344,-1.12555 -3.96875,-0.66015 -0.03162,0.0316 1.514172,1.61012 2.38086,2.91015 2.360637,3.54095 -3.299348,1.25951 0.529296,3.17383 0.72588,0.36294 3.472408,1.39814 2.513672,2.11719 -0.777444,0.58309 -2.827344,1.58789 -3.835937,1.58789 -0.531,0 1.056891,0.13281 1.587891,0.13281 0.674894,0 4.370691,-0.52383 4.761718,-0.13281 0.462799,0.4628 -1.368457,3.26044 -0.396484,4.23242 0.461825,0.46182 1.092016,-3.00956 1.191406,-2.91016 0.410443,0.41044 1.321858,3.70529 2.115234,3.3086 1.525725,-0.76286 1.178657,-2.7921 1.191407,-2.7793 0.759145,0.75914 1.414247,1.55516 2.248047,2.25 2.463451,2.05287 1.846727,-1.84672 2.646484,-2.64648 0.415932,-0.41593 3.944044,3.99345 4.365234,3.57226 1.122014,-1.12202 -2.689463,-5.20505 -1.984375,-6.61523 0.225695,-0.45139 1.741041,0.63981 1.984375,0.39648 0.485029,-0.48503 -3.511716,-5.23047 -3.96875,-5.6875 -0.246414,-0.24642 3.609486,-1.50514 3.96875,-1.7207 1.944632,-1.16678 -2.248046,-1.14064 -2.248046,-1.58594 0,-0.70894 2.345435,-2.28543 1.58789,-3.04297 -0.285858,-0.28586 -3.333048,2.38086 -3.705078,2.38086 -0.0014,0 -0.129112,-1.29316 -0.132812,-1.32226 -0.131727,-1.05381 -0.850668,-2.42506 -1.189454,-3.44141 -0.115149,-0.34545 -2.64458,1.19141 -2.910156,1.19141 -1.264113,0 -2.409041,-2.77735 -2.779297,-2.77735 z"
       transform="translate(-0.280633,3.3675961)" />
    <path
       sodipodi:type="inkscape:offset"
       inkscape:radius="0"
       inkscape:original="M 34.130859 164.87305 C 34.130859 164.39811 33.768327 165.75061 33.601562 166.19531 C 33.164571 167.36062 32.808594 168.92872 32.808594 170.16406 C 32.808594 170.64913 33.293662 171.61914 32.808594 171.61914 C 32.59403 171.61914 30.169032 165.92471 29.765625 166.32812 C 29.406709 166.68705 29.871404 169.24004 30.029297 169.63477 C 30.324553 170.37292 30.851897 170.99113 30.691406 171.88477 C 29.992589 172.40888 28.216199 170.37055 27.119141 169.90039 C 26.626051 169.6891 24.996738 169.63477 25.533203 169.63477 C 26.00542 169.63477 28.972656 171.71982 28.972656 172.14844 C 28.972656 172.33713 27.01292 171.1449 26.326172 171.48828 C 26.093256 171.60474 28.576224 173.64913 28.707031 173.73633 C 31.786398 175.78924 26.851247 172.93491 27.78125 174.79492 C 27.999073 175.23056 29.236328 174.44066 29.236328 174.92773 C 29.236328 176.28757 25.548758 180.08594 27.251953 180.08594 C 29.13205 180.08594 30.455353 176.04352 30.691406 176.51562 C 30.929732 176.99228 31.486022 181.27764 31.75 181.01367 C 32.279489 180.48418 32.576962 179.45857 32.808594 178.76367 C 32.907196 178.46786 32.629591 177.83789 32.941406 177.83789 C 33.416208 177.83789 35.950476 183.16281 36.777344 182.33594 C 38.000933 181.11235 35.302205 176.53568 35.455078 176.38281 C 36.229254 175.60863 46.290063 179.6841 38.894531 175.98633 C 38.260023 175.66908 36.851393 175.07779 36.511719 174.39844 C 36.409264 174.19353 38.167802 173.92554 38.365234 173.86914 C 39.449189 173.55944 40.29252 173.03832 41.275391 172.54688 C 41.4176 172.47578 41.830872 172.28125 41.671875 172.28125 C 41.354381 172.28125 36.115234 173.37047 36.115234 172.81055 C 36.115234 171.68904 38.771718 169.35826 39.423828 168.44531 C 39.861811 167.83213 40.890778 165.99114 40.216797 166.32812 C 38.599756 167.13665 36.922953 170.28212 35.585938 171.61914 C 34.855333 172.34974 32.870958 174.73255 33.601562 174.00195 C 34.18198 173.42153 34.130859 166.20556 34.130859 164.87305 z "
       style="fill:#fffea3;fill-opacity:1;fill-rule:evenodd;stroke:none;stroke-width:0.26458332px;stroke-linecap:butt;stroke-linejoin:miter;stroke-opacity:1;filter:url(#filter6857)"
       id="path6650"
       d="m 34.130859,164.87305 c 0,-0.47494 -0.362532,0.87756 -0.529297,1.32226 -0.436991,1.16531 -0.792968,2.73341 -0.792968,3.96875 0,0.48507 0.485068,1.45508 0,1.45508 -0.214564,0 -2.639562,-5.69443 -3.042969,-5.29102 -0.358916,0.35893 0.105779,2.91192 0.263672,3.30665 0.295256,0.73815 0.8226,1.35636 0.662109,2.25 -0.698817,0.52411 -2.475207,-1.51422 -3.572265,-1.98438 -0.49309,-0.21129 -2.122403,-0.26562 -1.585938,-0.26562 0.472217,0 3.439453,2.08505 3.439453,2.51367 0,0.18869 -1.959736,-1.00354 -2.646484,-0.66016 -0.232916,0.11646 2.250052,2.16085 2.380859,2.24805 3.079367,2.05291 -1.855784,-0.80142 -0.925781,1.05859 0.217823,0.43564 1.455078,-0.35426 1.455078,0.13281 0,1.35984 -3.68757,5.15821 -1.984375,5.15821 1.880097,0 3.2034,-4.04242 3.439453,-3.57032 0.238326,0.47666 0.794616,4.76202 1.058594,4.49805 0.529489,-0.52949 0.826962,-1.5551 1.058594,-2.25 0.0986,-0.29581 -0.179003,-0.92578 0.132812,-0.92578 0.474802,0 3.00907,5.32492 3.835938,4.49805 1.223589,-1.22359 -1.475139,-5.80026 -1.322266,-5.95313 0.774176,-0.77418 10.834985,3.30129 3.439453,-0.39648 -0.634508,-0.31725 -2.043138,-0.90854 -2.382812,-1.58789 -0.102455,-0.20491 1.656083,-0.4729 1.853515,-0.5293 1.083955,-0.3097 1.927286,-0.83082 2.910157,-1.32226 0.142209,-0.0711 0.555481,-0.26563 0.396484,-0.26563 -0.317494,0 -5.556641,1.08922 -5.556641,0.5293 0,-1.12151 2.656484,-3.45229 3.308594,-4.36524 0.437983,-0.61318 1.46695,-2.45417 0.792969,-2.11719 -1.617041,0.80853 -3.293844,3.954 -4.630859,5.29102 -0.730605,0.7306 -2.71498,3.11341 -1.984376,2.38281 0.580418,-0.58042 0.529297,-7.79639 0.529297,-9.1289 z"
       transform="translate(-0.280633,3.3675961)" />
  </g>
  <g
     inkscape:groupmode="layer"
     id="layer4"
     inkscape:label="2"
     style="display:inline"
     transform="translate(0,-143.93334)">
    <path
       sodipodi:type="inkscape:offset"
       inkscape:radius="2.1854894"
       inkscape:original="M 32.675781 162.0957 C 32.044515 162.0957 31.664695 163.76891 31.353516 164.08008 C 31.074684 164.35891 30.460674 162.92157 30.427734 162.88867 C 30.398931 162.85987 29.427401 165.28582 29.369141 165.40234 C 28.354739 167.43114 27.648438 163.73108 27.648438 166.32812 L 27.648438 167.91602 C 24.012673 166.46172 27.834581 170.16406 26.722656 170.16406 C 25.938265 170.16406 23.219312 169.03851 22.753906 169.50391 C 22.722291 169.53553 24.268078 171.11403 25.134766 172.41406 C 27.495403 175.95501 21.835418 173.67357 25.664062 175.58789 C 26.389943 175.95083 29.13647 176.98603 28.177734 177.70508 C 27.40029 178.28817 25.35039 179.29297 24.341797 179.29297 C 23.810797 179.29297 25.398687 179.42578 25.929688 179.42578 C 26.604582 179.42578 30.300379 178.90195 30.691406 179.29297 C 31.154205 179.75577 29.322949 182.55341 30.294922 183.52539 C 30.756747 183.98721 31.386938 180.51583 31.486328 180.61523 C 31.896771 181.02567 32.808186 184.32052 33.601562 183.92383 C 35.127288 183.16097 34.780219 181.13173 34.792969 181.14453 C 35.552114 181.90367 36.207216 182.69969 37.041016 183.39453 C 39.504467 185.4474 38.887743 181.54781 39.6875 180.74805 C 40.103432 180.33212 43.631544 184.7415 44.052734 184.32031 C 45.174748 183.19829 41.363271 179.11526 42.068359 177.70508 C 42.294054 177.25369 43.8094 178.34489 44.052734 178.10156 C 44.537763 177.61653 40.541018 172.87109 40.083984 172.41406 C 39.83757 172.16764 43.69347 170.90892 44.052734 170.69336 C 45.997366 169.52658 41.804688 169.55272 41.804688 169.10742 C 41.804688 168.39848 44.150123 166.82199 43.392578 166.06445 C 43.10672 165.77859 40.05953 168.44531 39.6875 168.44531 C 39.686097 168.44531 39.558388 167.15215 39.554688 167.12305 C 39.422961 166.06924 38.70402 164.69799 38.365234 163.68164 C 38.250085 163.33619 35.720654 164.87305 35.455078 164.87305 C 34.190965 164.87305 33.046037 162.0957 32.675781 162.0957 z "
       style="display:inline;opacity:0.9;fill:#5f5031;fill-opacity:1;fill-rule:evenodd;stroke:none;stroke-width:0.26458332px;stroke-linecap:butt;stroke-linejoin:miter;stroke-opacity:1;filter:url(#filter6853)"
       id="path6867"
       d="m 32.675781,159.91016 c -0.941286,0 -1.512325,0.4648 -1.886719,0.86132 -0.262094,-0.007 -0.818223,-0.0196 -0.818359,-0.0195 -1.69e-4,4e-5 -0.603318,0.2245 -0.603515,0.22461 -1.98e-4,1.1e-4 -0.316181,0.21271 -0.316407,0.21289 -4.51e-4,3.7e-4 -0.225685,0.20855 -0.283203,0.27539 -0.05752,0.0668 -0.09439,0.11623 -0.123047,0.15625 -0.114645,0.1601 -0.132432,0.2079 -0.158203,0.25586 -0.05154,0.0959 -0.06997,0.13987 -0.09375,0.19141 -0.04755,0.10307 -0.09247,0.20605 -0.144531,0.32812 -0.101093,0.23705 -0.22507,0.53499 -0.349609,0.8379 -0.422599,-0.0139 -0.877534,0.0392 -1.261719,0.27343 -0.65264,0.39786 -0.849919,0.87976 -0.958985,1.16602 -0.109065,0.28625 -0.137783,0.47555 -0.162109,0.64844 -0.01427,0.10138 -0.0079,0.19999 -0.01563,0.29492 -0.255315,0.0912 -0.502554,0.13133 -0.777344,0.36133 -0.448956,0.37577 -0.670943,0.85515 -0.77539,1.30859 -0.08019,-0.0125 -0.143209,-0.0368 -0.226563,-0.0469 -0.268981,-0.0324 -0.554262,-0.0581 -0.943359,-0.0137 -0.389098,0.0445 -0.978278,0.14235 -1.56836,0.73242 -1.23e-4,1.3e-4 -0.453049,0.65999 -0.453125,0.66016 -7.5e-5,1.7e-4 -0.169894,0.60916 -0.169921,0.60938 -5.6e-5,4.3e-4 0.03112,0.73766 0.03125,0.73828 1.33e-4,6.2e-4 0.07448,0.26887 0.107421,0.35156 0.03294,0.0827 0.06126,0.14124 0.08594,0.18945 0.09872,0.19285 0.144132,0.24475 0.181641,0.29688 0.07502,0.10426 0.109498,0.14152 0.146484,0.18554 0.07397,0.0881 0.139692,0.16305 0.220703,0.25391 0.162023,0.18173 0.370891,0.41182 0.603516,0.67774 0.328875,0.37594 0.648776,0.79981 0.957031,1.20507 -0.23891,0.19889 -0.518307,0.42705 -0.681641,0.88477 -0.201837,0.56562 -0.119029,1.21078 0.0332,1.58789 0.304464,0.75422 0.594545,0.86676 0.777344,1.00977 0.182799,0.143 0.324411,0.22928 0.478516,0.32031 0.103834,0.0613 0.272698,0.14299 0.390625,0.20703 -0.04903,0.007 -0.103433,0.0156 -0.199219,0.0391 -0.05404,0.0133 -0.118619,0.0294 -0.207031,0.0606 -0.08841,0.0311 -0.358978,0.16383 -0.359375,0.16406 -3.98e-4,2.3e-4 -0.630671,0.54273 -0.63086,0.54297 -9.4e-5,1.2e-4 -0.349566,0.63464 -0.349609,0.63476 -4.3e-5,1.3e-4 -0.117196,0.86707 -0.117187,0.86719 8e-6,1.3e-4 0.195253,0.77136 0.195312,0.77149 5.9e-5,1.3e-4 0.308484,0.48619 0.308594,0.48632 2.19e-4,2.7e-4 0.482003,0.42747 0.482422,0.42774 8.37e-4,5.5e-4 0.358829,0.19161 0.449218,0.22461 0.09039,0.033 0.147352,0.0503 0.19336,0.0625 0.18403,0.049 0.224986,0.0481 0.28125,0.0566 0.225053,0.034 0.371193,0.0442 0.589844,0.0625 0.4373,0.0366 0.927293,0.0742 1.375,0.0742 0.45144,0 0.730909,-0.0424 1.183593,-0.0859 0.281561,-0.027 0.602936,-0.0537 0.916016,-0.082 -0.07298,0.30412 -0.171593,0.55019 -0.197266,0.92578 -0.05021,0.73461 0.06168,1.84487 0.917969,2.70117 0.314802,0.3148 0.947772,0.68434 1.634766,0.6836 0.586192,-6.4e-4 0.96433,-0.24911 1.259765,-0.45703 0.176462,0.18645 0.298778,0.37363 0.646485,0.55468 0.546766,0.28471 1.571884,0.38496 2.287109,0.0273 0.441073,-0.22054 0.668897,-0.58084 0.972656,-0.89649 0.03867,0.033 0.05216,0.0588 0.0918,0.0918 0.842827,0.70235 1.922515,1.40766 3.361328,0.98047 1.024988,-0.30433 1.45833,-0.95671 1.742188,-1.56446 0.35458,0.35624 0.708815,0.72333 1.064453,1.03516 0.249776,0.21901 0.474985,0.41785 0.857422,0.63867 0.191218,0.11041 0.415068,0.2452 0.875,0.33008 0.459932,0.0849 1.42163,0.004 2.054687,-0.62891 0.593303,-0.5933 0.835147,-1.43739 0.847656,-2.04882 0.01251,-0.61144 -0.114188,-1.07723 -0.255859,-1.5 -0.283343,-0.84556 -0.682,-1.55562 -1.050781,-2.23633 -0.02807,-0.0518 -0.0387,-0.0796 -0.06641,-0.13086 0.177819,-0.0982 0.348528,-0.12588 0.52539,-0.30274 0.610603,-0.6106 0.69811,-1.36786 0.679688,-1.78125 -0.01842,-0.41338 -0.104845,-0.65586 -0.181641,-0.86914 -0.153591,-0.42654 -0.326972,-0.72684 -0.523437,-1.05273 -0.39293,-0.65178 -0.890429,-1.33565 -1.414063,-2.02148 -0.193746,-0.25377 -0.367172,-0.4575 -0.560547,-0.70118 0.135961,-0.0503 0.287469,-0.10783 0.41211,-0.15429 0.210142,-0.0784 0.399065,-0.14933 0.568359,-0.2168 0.169294,-0.0675 0.217547,-0.052 0.599609,-0.28125 0.390083,-0.23405 0.778038,-0.45663 1.177735,-1.08203 0.399697,-0.62541 0.435836,-2.04845 -0.05078,-2.73438 -0.40323,-0.56838 -0.742171,-0.67477 -1.046876,-0.80468 0.07253,-0.12973 0.1484,-0.16799 0.216797,-0.32813 0.146215,-0.34234 0.290461,-0.79754 0.248047,-1.39062 -0.04241,-0.59309 -0.357101,-1.28094 -0.785156,-1.70899 -0.661402,-0.66141 -1.462666,-0.68907 -1.847656,-0.65039 -0.384991,0.0387 -0.580965,0.12423 -0.75,0.19336 -0.33807,0.13826 -0.543077,0.26671 -0.763672,0.40625 -0.141911,0.0898 -0.280674,0.20115 -0.421875,0.29883 -0.290992,-0.75933 -0.586101,-1.39112 -0.714844,-1.77735 -0.235394,-0.70618 -0.988584,-1.28826 -1.476562,-1.43945 -0.487979,-0.15119 -0.772644,-0.11357 -0.986329,-0.0898 -0.427369,0.0475 -0.626685,0.13455 -0.83789,0.21289 -0.42241,0.15668 -0.786544,0.33606 -1.152344,0.51953 -0.132291,0.0663 -0.223595,0.11409 -0.347656,0.17773 -0.04909,-0.0636 -0.07231,-0.0766 -0.123047,-0.14843 -0.200143,-0.2833 -0.401419,-0.60386 -0.626953,-0.93164 -0.112767,-0.16389 -0.221633,-0.32697 -0.423828,-0.54883 -0.202196,-0.22187 -0.376638,-0.83203 -1.789063,-0.83203 z"
       transform="translate(-0.280633,4.1235464)" />
    <path
       d="m 33.527344,162.81055 c -0.501259,0.14765 -0.720186,0.36737 -0.865235,0.50976 -0.290097,0.28478 -0.330292,0.41238 -0.386718,0.51563 -0.225707,0.41299 -0.223168,0.50744 -0.289063,0.70508 -0.114148,0.34235 -0.216784,0.67803 -0.259766,0.81054 -0.07005,-0.0935 -0.107542,-0.17716 -0.201171,-0.28125 -0.142413,-0.15832 -0.286552,-0.35553 -0.761719,-0.58789 -0.237584,-0.11618 -0.597767,-0.2482 -1.085938,-0.2168 -0.48817,0.0314 -1.04332,0.29918 -1.359375,0.61524 -0.551884,0.55191 -0.595344,0.96802 -0.65625,1.26758 -0.06091,0.29955 -0.07275,0.53342 -0.07617,0.76172 -0.0055,0.36676 0.03108,0.7095 0.06836,1.05273 -0.667219,-0.22846 -1.132452,-0.27281 -1.511719,-0.31055 -0.22371,-0.0223 -0.423792,-0.0397 -0.457031,-0.043 -0.0083,-8.3e-4 -0.01544,-0.003 0.05664,0.008 0.03604,0.005 0.03515,-0.0169 0.320312,0.0762 0.07129,0.0233 0.344014,0.14858 0.34375,0.14844 -1.32e-4,-7e-5 0.359455,0.25007 0.359375,0.25 -8e-5,-7e-5 0.544951,0.74616 0.544922,0.74609 -1.2e-5,-3e-5 0.0087,0.31683 0.01758,0.61523 -0.465265,-0.10301 -1.047832,-0.22999 -1.917969,0.20508 -0.437742,0.21888 -0.914568,0.76712 -1.0625,1.27344 -0.147931,0.50632 -0.07897,0.86906 -0.01953,1.10352 0.118879,0.46892 0.247966,0.60061 0.337891,0.73242 0.17985,0.26361 0.303829,0.3847 0.443359,0.5293 0.190434,0.19734 0.409893,0.39277 0.625,0.58789 -0.194329,0.81627 0.01423,1.42104 0.216797,1.82617 0.09216,0.18432 0.293328,0.2443 0.439453,0.39844 -0.178081,0.27645 -0.326495,0.51692 -0.513672,0.8125 -0.378992,0.59846 -0.756376,1.11461 -1.003906,1.99414 -0.123765,0.43976 -0.308061,1.15262 0.207031,2.03515 0.515092,0.88254 1.578572,1.18164 2.171875,1.18164 1.009278,0 1.755211,-0.44685 2.341797,-0.92383 0.04172,0.15948 0.07027,0.30279 0.171875,0.53321 0.07203,0.16335 0.09652,0.36495 0.552734,0.78125 0.228109,0.20815 0.663923,0.51852 1.31836,0.54687 0.654437,0.0283 1.275762,-0.3246 1.560547,-0.60937 0.12714,-0.12714 0.139294,-0.24376 0.24414,-0.3711 0.300973,0.44267 0.584966,0.89424 0.964844,1.29688 0.274902,0.29137 0.553272,0.59493 1.15625,0.86328 0.301489,0.13417 0.722749,0.26121 1.244141,0.20898 0.521391,-0.0522 1.079688,-0.3375 1.417968,-0.67578 1.02306,-1.02306 0.98633,-2.25133 0.871094,-3.13672 -0.07977,-0.61289 -0.280811,-1.13629 -0.460937,-1.67382 0.36833,0.1019 0.733157,0.19238 1.066406,0.2832 0.437707,0.11928 0.805587,0.21862 1.1875,0.28906 0.190956,0.0352 0.322057,0.0952 0.804687,0.0566 0.241316,-0.0193 0.702587,0.06 1.376953,-0.64844 0.337184,-0.3542 0.579538,-0.9847 0.570313,-1.46874 -0.0092,-0.48405 -0.158053,-0.79128 -0.271484,-0.99219 -0.453726,-0.80365 -0.626935,-0.71769 -0.822266,-0.85157 -0.195331,-0.13387 -0.391953,-0.25017 -0.636719,-0.38867 -0.180207,-0.10196 -0.539814,-0.27838 -0.773437,-0.40234 0.316889,-0.16636 0.768936,-0.32978 1.054687,-0.47266 0.02959,-0.0148 0.194208,-0.0885 0.40625,-0.20898 0.106022,-0.0602 0.157497,-0.002 0.574219,-0.43555 0.10418,-0.10833 0.257755,-0.25004 0.421875,-0.64062 0.04103,-0.0977 0.08068,-0.21206 0.111328,-0.34961 0.03065,-0.13755 0.04884,-0.47574 0.04883,-0.47657 -2.3e-5,-0.002 -0.34284,-1.10996 -0.34375,-1.11132 -4.55e-4,-6.9e-4 -0.231462,-0.29439 -0.351562,-0.40039 -0.1201,-0.10601 -0.237364,-0.18548 -0.34375,-0.2461 -0.212774,-0.12123 -0.381584,-0.1749 -0.515625,-0.20898 -0.268083,-0.0682 -0.41306,-0.0645 -0.527344,-0.0645 -0.62487,-10e-6 -0.473484,0.0408 -0.664063,0.0723 -0.169499,0.028 -0.382638,0.0653 -0.613281,0.10547 0.231611,-0.25764 0.486662,-0.48523 0.695313,-0.77734 0.34148,-0.47808 0.697874,-1.07895 1.005859,-1.74805 0.153993,-0.33455 0.336569,-0.53379 0.386719,-1.32617 0.01254,-0.1981 0.02018,-0.45798 -0.103516,-0.8418 -0.12369,-0.38382 -0.476395,-0.93207 -1.007812,-1.2207 -1.062835,-0.57726 -1.745838,-0.16224 -2.070313,0 -1.505053,0.75253 -2.314128,1.94012 -3.144531,3.05078 -0.0021,0.003 -0.0038,0.003 -0.0059,0.006 0.0064,-1.00243 0.02734,-2.33179 0.02734,-2.68164 0,-0.0948 0.0018,-0.19759 -0.0332,-0.40625 -0.035,-0.20867 0.114199,-0.64881 -0.808593,-1.33399 -0.461397,-0.34259 -1.307336,-0.46992 -1.808594,-0.32226 z"
       id="path6869"
       style="display:inline;opacity:0.8;fill:#fffea3;fill-opacity:1;fill-rule:evenodd;stroke:none;stroke-width:0.26458332px;stroke-linecap:butt;stroke-linejoin:miter;stroke-opacity:1;filter:url(#filter6857)"
       inkscape:original="M 34.130859 164.87305 C 34.130859 164.39811 33.768327 165.75061 33.601562 166.19531 C 33.164571 167.36062 32.808594 168.92872 32.808594 170.16406 C 32.808594 170.64913 33.293662 171.61914 32.808594 171.61914 C 32.59403 171.61914 30.169032 165.92471 29.765625 166.32812 C 29.406709 166.68705 29.871404 169.24004 30.029297 169.63477 C 30.324553 170.37292 30.851897 170.99113 30.691406 171.88477 C 29.992589 172.40888 28.216199 170.37055 27.119141 169.90039 C 26.626051 169.6891 24.996738 169.63477 25.533203 169.63477 C 26.00542 169.63477 28.972656 171.71982 28.972656 172.14844 C 28.972656 172.33713 27.01292 171.1449 26.326172 171.48828 C 26.093256 171.60474 28.576224 173.64913 28.707031 173.73633 C 31.786398 175.78924 26.851247 172.93491 27.78125 174.79492 C 27.999073 175.23056 29.236328 174.44066 29.236328 174.92773 C 29.236328 176.28757 25.548758 180.08594 27.251953 180.08594 C 29.13205 180.08594 30.455353 176.04352 30.691406 176.51562 C 30.929732 176.99228 31.486022 181.27764 31.75 181.01367 C 32.279489 180.48418 32.576962 179.45857 32.808594 178.76367 C 32.907196 178.46786 32.629591 177.83789 32.941406 177.83789 C 33.416208 177.83789 35.950476 183.16281 36.777344 182.33594 C 38.000933 181.11235 35.302205 176.53568 35.455078 176.38281 C 36.229254 175.60863 46.290063 179.6841 38.894531 175.98633 C 38.260023 175.66908 36.851393 175.07779 36.511719 174.39844 C 36.409264 174.19353 38.167802 173.92554 38.365234 173.86914 C 39.449189 173.55944 40.29252 173.03832 41.275391 172.54688 C 41.4176 172.47578 41.830872 172.28125 41.671875 172.28125 C 41.354381 172.28125 36.115234 173.37047 36.115234 172.81055 C 36.115234 171.68904 38.771718 169.35826 39.423828 168.44531 C 39.861811 167.83213 40.890778 165.99114 40.216797 166.32812 C 38.599756 167.13665 36.922953 170.28212 35.585938 171.61914 C 34.855333 172.34974 32.870958 174.73255 33.601562 174.00195 C 34.18198 173.42153 34.130859 166.20556 34.130859 164.87305 z "
       inkscape:radius="2.0468841"
       sodipodi:type="inkscape:offset"
       transform="translate(-0.280633,4.1235464)" />
  </g>
  <g
     inkscape:groupmode="layer"
     id="layer5"
     inkscape:label="3"
     style="display:inline"
     transform="translate(0,-143.93334)">
    <path
       transform="translate(-0.280633,4.1235464)"
       d="m 32.675781,157.37695 c -1.254595,0 -2.153994,0.4148 -2.857422,0.90625 -0.106665,-0.003 -0.376924,-0.01 -0.376953,-0.01 -1.69e-4,3e-5 -1.302536,0.48817 -1.302734,0.48828 -1.98e-4,1.1e-4 -0.679462,0.45685 -0.679688,0.45703 -4.51e-4,3.7e-4 -0.489723,0.45015 -0.613281,0.59375 -0.123558,0.1436 -0.198649,0.24669 -0.259765,0.33203 -0.244465,0.34138 -0.281431,0.43903 -0.332032,0.5332 -0.101201,0.18836 -0.127832,0.25383 -0.162109,0.32813 -0.02534,0.0549 -0.04317,0.0984 -0.06445,0.14648 -0.233462,0.086 -0.49818,0.0629 -0.708985,0.19141 -1.385595,0.84467 -1.790463,1.85728 -2.007812,2.42773 -0.03368,0.0884 -0.02084,0.10754 -0.04687,0.18555 -0.05991,0.0466 -0.10559,0.0275 -0.166016,0.0781 -0.242056,0.2026 -0.381649,0.44584 -0.564453,0.67382 -0.01921,0.002 -0.02336,-0.002 -0.04297,0 -0.700632,0.0801 -1.867384,0.25022 -3.074218,1.45704 -1.24e-4,1.2e-4 -0.978441,1.42756 -0.978516,1.42773 -7.5e-5,1.7e-4 -0.365207,1.31424 -0.365234,1.31445 -5.6e-5,4.4e-4 0.06823,1.59118 0.06836,1.5918 1.34e-4,6.2e-4 0.157749,0.57823 0.228516,0.75586 0.07077,0.17763 0.132835,0.30328 0.185547,0.40625 0.210847,0.41186 0.305538,0.51641 0.380859,0.62109 0.150641,0.20937 0.205579,0.27107 0.261719,0.33789 0.112279,0.13366 0.185829,0.21253 0.271484,0.3086 0.104983,0.11775 0.235867,0.26544 0.359375,0.40429 -0.357263,1.16601 -0.213362,2.45406 0.09375,3.21485 0.09508,0.23552 0.173544,0.27174 0.265625,0.45117 -0.202187,0.36754 -0.406227,0.74017 -0.40625,0.74023 -4.3e-5,1.3e-4 -0.255868,1.87293 -0.255859,1.87305 8e-6,1.3e-4 0.423769,1.66394 0.423828,1.66406 5.9e-5,1.3e-4 0.663953,1.05065 0.664062,1.05078 2.2e-4,2.7e-4 1.040597,0.92551 1.041016,0.92579 8.38e-4,5.4e-4 0.773476,0.41184 0.966797,0.48242 0.193321,0.0706 0.313555,0.10318 0.410156,0.1289 0.386406,0.10292 0.457098,0.10051 0.554688,0.11524 0.390357,0.0589 0.515782,0.0618 0.757812,0.082 0.349919,0.0293 0.742519,0.0441 1.146484,0.0586 0.203726,0.90711 0.596086,1.87147 1.466797,2.74219 0.646351,0.64634 1.982865,1.42539 3.431641,1.42383 0.320221,-3.5e-4 0.545101,-0.11406 0.826172,-0.16797 1.083411,0.52599 3.100119,0.72436 4.498047,0.0254 0.02168,-0.0108 0.03518,-0.028 0.05664,-0.0391 1.039818,0.52507 2.278192,0.87678 3.955078,0.37891 0.44879,-0.13325 0.765435,-0.34673 1.113282,-0.54102 0.181703,0.13674 0.265019,0.24229 0.5625,0.41406 0.333167,0.19238 0.745319,0.45612 1.68164,0.62891 0.936321,0.17279 2.972022,0.008 4.308594,-1.32813 1.11862,-1.11862 1.566138,-2.72581 1.587891,-3.78906 0.02175,-1.06325 -0.190077,-1.7706 -0.386719,-2.35742 -0.174963,-0.52213 -0.357753,-0.78232 -0.544922,-1.17383 0.540728,-0.99409 0.788333,-1.98872 0.761719,-2.58594 -0.0366,-0.82139 -0.199249,-1.25537 -0.328125,-1.61328 -0.257752,-0.71581 -0.493888,-1.0998 -0.736328,-1.50195 -0.107974,-0.1791 -0.237235,-0.32997 -0.34961,-0.50195 0.338116,-0.27855 0.70313,-0.66784 1.097657,-1.28516 0.780287,-1.22092 0.860423,-4.18092 -0.121094,-5.56445 -0.10463,-0.14749 -0.184186,-0.16639 -0.285156,-0.28907 0.04835,-0.3419 0.194347,-0.52572 0.164062,-0.94921 -0.08189,-1.14513 -0.704939,-2.50573 -1.519531,-3.32032 -1.407589,-1.4076 -3.107331,-1.45799 -3.894531,-1.3789 -0.2653,0.0267 -0.306631,0.0836 -0.490235,0.125 -0.692041,-1.13285 -1.794031,-2.08192 -2.632812,-2.3418 -1.024904,-0.31755 -1.600959,-0.23355 -2.015625,-0.1875 -0.69204,0.0769 -0.934093,0.19251 -1.201172,0.29492 -0.06531,-0.0787 -0.06981,-0.10613 -0.158203,-0.20312 -0.356394,-0.39107 -0.665627,-1.65821 -3.66211,-1.65821 z m -1.511719,4.62696 c 0.412628,0.29988 0.538191,0.56681 0.515626,0.54101 -0.01928,-0.022 -0.139847,-0.18588 -0.515626,-0.54101 z m 15.041016,8.9707 c -0.189898,0.36609 -0.380263,0.4367 -0.365234,0.41797 0.01574,-0.0196 0.2237,-0.25699 0.365234,-0.41797 z M 22.296875,171.125 c 0.06753,0.12015 0.261288,0.50086 0.220703,0.41016 -0.02447,-0.0547 -0.135774,-0.13432 -0.220703,-0.41016 z m 21.695313,11.68164 c -0.0075,0.0375 -0.123986,0.14907 -0.150391,0.20703 0.0068,-0.0397 0.04083,-0.1701 0.04687,-0.20117 0.02921,0.001 0.07279,-0.007 0.103516,-0.006 z"
       id="path6879"
       style="display:inline;opacity:0.8;fill:#5f5031;fill-opacity:1;fill-rule:evenodd;stroke:none;stroke-width:0.26458332px;stroke-linecap:butt;stroke-linejoin:miter;stroke-opacity:1;filter:url(#filter6853)"
       inkscape:original="M 32.675781 162.0957 C 32.044515 162.0957 31.664695 163.76891 31.353516 164.08008 C 31.074684 164.35891 30.460674 162.92157 30.427734 162.88867 C 30.398931 162.85987 29.427401 165.28582 29.369141 165.40234 C 28.354739 167.43114 27.648438 163.73108 27.648438 166.32812 L 27.648438 167.91602 C 24.012673 166.46172 27.834581 170.16406 26.722656 170.16406 C 25.938265 170.16406 23.219312 169.03851 22.753906 169.50391 C 22.722291 169.53553 24.268078 171.11403 25.134766 172.41406 C 27.495403 175.95501 21.835418 173.67357 25.664062 175.58789 C 26.389943 175.95083 29.13647 176.98603 28.177734 177.70508 C 27.40029 178.28817 25.35039 179.29297 24.341797 179.29297 C 23.810797 179.29297 25.398687 179.42578 25.929688 179.42578 C 26.604582 179.42578 30.300379 178.90195 30.691406 179.29297 C 31.154205 179.75577 29.322949 182.55341 30.294922 183.52539 C 30.756747 183.98721 31.386938 180.51583 31.486328 180.61523 C 31.896771 181.02567 32.808186 184.32052 33.601562 183.92383 C 35.127288 183.16097 34.780219 181.13173 34.792969 181.14453 C 35.552114 181.90367 36.207216 182.69969 37.041016 183.39453 C 39.504467 185.4474 38.887743 181.54781 39.6875 180.74805 C 40.103432 180.33212 43.631544 184.7415 44.052734 184.32031 C 45.174748 183.19829 41.363271 179.11526 42.068359 177.70508 C 42.294054 177.25369 43.8094 178.34489 44.052734 178.10156 C 44.537763 177.61653 40.541018 172.87109 40.083984 172.41406 C 39.83757 172.16764 43.69347 170.90892 44.052734 170.69336 C 45.997366 169.52658 41.804688 169.55272 41.804688 169.10742 C 41.804688 168.39848 44.150123 166.82199 43.392578 166.06445 C 43.10672 165.77859 40.05953 168.44531 39.6875 168.44531 C 39.686097 168.44531 39.558388 167.15215 39.554688 167.12305 C 39.422961 166.06924 38.70402 164.69799 38.365234 163.68164 C 38.250085 163.33619 35.720654 164.87305 35.455078 164.87305 C 34.190965 164.87305 33.046037 162.0957 32.675781 162.0957 z "
       inkscape:radius="4.7195911"
       sodipodi:type="inkscape:offset" />
    <path
       transform="translate(-0.280633,4.1235464)"
       sodipodi:type="inkscape:offset"
       inkscape:radius="3.5738218"
       inkscape:original="M 34.130859 164.87305 C 34.130859 164.39811 33.768327 165.75061 33.601562 166.19531 C 33.164571 167.36062 32.808594 168.92872 32.808594 170.16406 C 32.808594 170.64913 33.293662 171.61914 32.808594 171.61914 C 32.59403 171.61914 30.169032 165.92471 29.765625 166.32812 C 29.406709 166.68705 29.871404 169.24004 30.029297 169.63477 C 30.324553 170.37292 30.851897 170.99113 30.691406 171.88477 C 29.992589 172.40888 28.216199 170.37055 27.119141 169.90039 C 26.626051 169.6891 24.996738 169.63477 25.533203 169.63477 C 26.00542 169.63477 28.972656 171.71982 28.972656 172.14844 C 28.972656 172.33713 27.01292 171.1449 26.326172 171.48828 C 26.093256 171.60474 28.576224 173.64913 28.707031 173.73633 C 31.786398 175.78924 26.851247 172.93491 27.78125 174.79492 C 27.999073 175.23056 29.236328 174.44066 29.236328 174.92773 C 29.236328 176.28757 25.548758 180.08594 27.251953 180.08594 C 29.13205 180.08594 30.455353 176.04352 30.691406 176.51562 C 30.929732 176.99228 31.486022 181.27764 31.75 181.01367 C 32.279489 180.48418 32.576962 179.45857 32.808594 178.76367 C 32.907196 178.46786 32.629591 177.83789 32.941406 177.83789 C 33.416208 177.83789 35.950476 183.16281 36.777344 182.33594 C 38.000933 181.11235 35.302205 176.53568 35.455078 176.38281 C 36.229254 175.60863 46.290063 179.6841 38.894531 175.98633 C 38.260023 175.66908 36.851393 175.07779 36.511719 174.39844 C 36.409264 174.19353 38.167802 173.92554 38.365234 173.86914 C 39.449189 173.55944 40.29252 173.03832 41.275391 172.54688 C 41.4176 172.47578 41.830872 172.28125 41.671875 172.28125 C 41.354381 172.28125 36.115234 173.37047 36.115234 172.81055 C 36.115234 171.68904 38.771718 169.35826 39.423828 168.44531 C 39.861811 167.83213 40.890778 165.99114 40.216797 166.32812 C 38.599756 167.13665 36.922953 170.28212 35.585938 171.61914 C 34.855333 172.34974 32.870958 174.73255 33.601562 174.00195 C 34.18198 173.42153 34.130859 166.20556 34.130859 164.87305 z "
       style="display:inline;opacity:0.6;fill:#fffea3;fill-opacity:1;fill-rule:evenodd;stroke:none;stroke-width:0.26458332px;stroke-linecap:butt;stroke-linejoin:miter;stroke-opacity:1;filter:url(#filter6857)"
       id="path6881"
       d="m 34.697266,161.30469 c -0.577644,-0.0976 -1.165131,-0.0875 -1.601563,0.041 -0.872864,0.25712 -1.253365,0.63882 -1.503906,0.88477 -0.455024,0.44668 -0.513437,0.63128 -0.595703,0.79297 -0.383243,-0.14761 -0.77429,-0.32253 -1.416016,-0.28125 -0.840083,0.054 -1.799375,0.51617 -2.341797,1.05859 -0.930112,0.93015 -0.981841,1.60019 -1.072265,2.04492 -0.02358,0.11598 -0.0133,0.17192 -0.02734,0.27149 -0.134378,-0.0123 -0.306284,-0.0277 -0.302734,-0.0273 0.0013,1.4e-4 -4.88e-4,-0.002 0.132812,0.0176 0.01946,0.003 0.143697,0.0382 0.166016,0.0391 -0.03589,0.2673 -0.07114,0.53532 -0.07422,0.74024 -0.0059,0.39215 0.03259,0.70645 0.06445,1.03516 -0.415152,0.0493 -0.826407,0.0841 -1.396484,0.36914 -0.758861,0.37943 -1.590959,1.33234 -1.847657,2.21093 -0.256698,0.8786 -0.133007,1.50682 -0.03125,1.90821 0.203515,0.80276 0.414785,1.01368 0.554688,1.21875 0.279805,0.41012 0.437222,0.55416 0.605469,0.72851 0.05356,0.0555 0.106905,0.0973 0.160156,0.15039 0.02031,0.73268 0.153886,1.32619 0.353516,1.72461 -0.379484,0.58531 -0.786807,1.08369 -1.121094,2.27149 -0.176481,0.62707 -0.49359,1.75536 0.359375,3.21679 0.852964,1.46143 2.613157,1.93946 3.490234,1.93946 0.681468,0 1.221004,-0.20843 1.75,-0.41407 0.122613,0.15759 0.042,0.18259 0.287109,0.40625 0.391324,0.35709 1.145182,0.89415 2.28125,0.94336 0.571043,0.0247 1.126486,-0.11777 1.601563,-0.32812 0.05181,0.0576 0.07012,0.10785 0.125,0.16601 0.345219,0.36591 0.703162,0.792 1.644531,1.21094 0.470685,0.20947 1.155055,0.42038 2.017578,0.33399 0.862524,-0.0864 1.793625,-0.56316 2.345704,-1.11524 1.329807,-1.32981 1.38449,-2.73305 1.300781,-3.81836 0.0022,4.1e-4 0.0036,0.002 0.0059,0.002 0.243143,0.0448 0.402565,0.14017 1.203125,0.0762 0.40028,-0.032 1.191083,0.11214 2.361328,-1.11719 0.585123,-0.61467 1.008193,-1.70904 0.992188,-2.54883 -0.016,-0.83979 -0.276603,-1.37105 -0.470703,-1.71484 -0.280229,-0.49634 -0.436637,-0.63528 -0.605469,-0.81446 0.09547,-0.0873 0.04111,0.007 0.181641,-0.13867 0.178427,-0.18553 0.443174,-0.42639 0.728515,-1.10547 0.07133,-0.16976 0.139993,-0.36988 0.193359,-0.60937 0.05337,-0.23949 0.08595,-0.82925 0.08594,-0.83008 -2.4e-5,-0.002 -0.600653,-1.93613 -0.601562,-1.9375 -4.55e-4,-6.8e-4 -0.400195,-0.51263 -0.609376,-0.69726 -0.20918,-0.18464 -0.414549,-0.32229 -0.599609,-0.42774 -0.122028,-0.0695 -0.188988,-0.0725 -0.294922,-0.11914 0.09828,-0.18909 0.209804,-0.32249 0.308594,-0.53711 0.183923,-0.39957 0.440287,-0.5862 0.521484,-1.86914 0.0203,-0.32074 0.03672,-0.75289 -0.173828,-1.40625 -0.210552,-0.65336 -0.817822,-1.597 -1.732422,-2.09375 -1.829199,-0.9935 -2.976789,-0.27722 -3.480468,-0.0254 -0.451221,0.22561 -0.671966,0.50543 -1.015625,0.75781 -0.01394,-0.41265 -0.06105,-1.01986 -1.357422,-1.98242 -0.40184,-0.29837 -0.971185,-0.50395 -1.548828,-0.60156 z m -5.960938,7.66211 c 0.01985,0.66608 0.04317,1.39742 0.05078,1.65234 -0.319219,-0.0395 -0.595401,-0.0955 -1.146484,-0.0449 -0.01477,0.001 -0.04347,0.0161 -0.05859,0.0176 l 0.964844,-1.56641 c 0.06042,-0.0453 0.125613,-0.0187 0.189453,-0.0586 z m -2.345703,0.82422 c 0.05407,0.30083 0.07517,0.50154 0.292969,1.07226 -0.218321,0.0696 -0.365995,0.0479 -0.623047,0.18945 -0.211228,0.11634 -0.344085,0.44706 -0.556641,0.63672 0.102488,-0.63611 0.396673,-1.33332 0.886719,-1.89843 z m 2.134766,1.43164 c -0.301772,0.43317 -0.806698,1.15629 -0.806641,1.15625 7.6e-5,-7e-5 -0.754035,0.48443 -0.753906,0.48437 8.1e-5,-4e-5 -0.145242,0.057 -0.271485,0.10742 0.32887,-0.59222 0.705323,-1.21632 1.132813,-1.48437 0.30477,-0.1911 0.471101,-0.19132 0.699219,-0.26367 z" />
  </g>
  <g
     inkscape:groupmode="layer"
     id="layer6"
     inkscape:label="4"
     style="display:inline"
     transform="translate(0,-143.93334)">
    <path
       sodipodi:type="inkscape:offset"
       inkscape:radius="7.8146791"
       inkscape:original="M 32.675781 162.0957 C 32.044515 162.0957 31.664695 163.76891 31.353516 164.08008 C 31.074684 164.35891 30.460674 162.92157 30.427734 162.88867 C 30.398931 162.85987 29.427401 165.28582 29.369141 165.40234 C 28.354739 167.43114 27.648438 163.73108 27.648438 166.32812 L 27.648438 167.91602 C 24.012673 166.46172 27.834581 170.16406 26.722656 170.16406 C 25.938265 170.16406 23.219312 169.03851 22.753906 169.50391 C 22.722291 169.53553 24.268078 171.11403 25.134766 172.41406 C 27.495403 175.95501 21.835418 173.67357 25.664062 175.58789 C 26.389943 175.95083 29.13647 176.98603 28.177734 177.70508 C 27.40029 178.28817 25.35039 179.29297 24.341797 179.29297 C 23.810797 179.29297 25.398687 179.42578 25.929688 179.42578 C 26.604582 179.42578 30.300379 178.90195 30.691406 179.29297 C 31.154205 179.75577 29.322949 182.55341 30.294922 183.52539 C 30.756747 183.98721 31.386938 180.51583 31.486328 180.61523 C 31.896771 181.02567 32.808186 184.32052 33.601562 183.92383 C 35.127288 183.16097 34.780219 181.13173 34.792969 181.14453 C 35.552114 181.90367 36.207216 182.69969 37.041016 183.39453 C 39.504467 185.4474 38.887743 181.54781 39.6875 180.74805 C 40.103432 180.33212 43.631544 184.7415 44.052734 184.32031 C 45.174748 183.19829 41.363271 179.11526 42.068359 177.70508 C 42.294054 177.25369 43.8094 178.34489 44.052734 178.10156 C 44.537763 177.61653 40.541018 172.87109 40.083984 172.41406 C 39.83757 172.16764 43.69347 170.90892 44.052734 170.69336 C 45.997366 169.52658 41.804688 169.55272 41.804688 169.10742 C 41.804688 168.39848 44.150123 166.82199 43.392578 166.06445 C 43.10672 165.77859 40.05953 168.44531 39.6875 168.44531 C 39.686097 168.44531 39.558388 167.15215 39.554688 167.12305 C 39.422961 166.06924 38.70402 164.69799 38.365234 163.68164 C 38.250085 163.33619 35.720654 164.87305 35.455078 164.87305 C 34.190965 164.87305 33.046037 162.0957 32.675781 162.0957 z "
       style="display:inline;opacity:0.7;fill:#5f5031;fill-opacity:1;fill-rule:evenodd;stroke:none;stroke-width:0.26458332px;stroke-linecap:butt;stroke-linejoin:miter;stroke-opacity:1;filter:url(#filter6853)"
       id="path6885"
       d="m 32.675781,154.28125 c -1.55531,0 -2.772859,0.42944 -3.783203,0.9668 -0.0049,-1.3e-4 -0.0957,-0.002 -0.0957,-0.002 -1.7e-4,4e-5 -2.159958,0.80849 -2.160156,0.8086 -1.98e-4,1.1e-4 -1.124774,0.75763 -1.125,0.75781 -4.52e-4,3.7e-4 -0.807501,0.74312 -1.011719,0.98047 -0.204218,0.23734 -0.330885,0.41008 -0.431641,0.55078 -0.130564,0.18232 -0.105272,0.17073 -0.175781,0.28125 -0.0582,0.0327 -0.128578,0.0414 -0.185547,0.0762 -1.820911,1.11005 -2.496686,2.30118 -2.917969,3.24024 -1.031366,0.25104 -2.222898,0.69947 -3.560546,2.03711 -1.24e-4,1.2e-4 -1.621019,2.36311 -1.621094,2.36328 -7.6e-5,1.7e-4 -0.605441,2.17361 -0.605469,2.17382 -5.5e-5,4.4e-4 0.111194,2.6361 0.111328,2.63672 1.34e-4,6.2e-4 0.263895,0.95447 0.38086,1.24805 0.116964,0.29358 0.217739,0.50203 0.304687,0.67188 0.347793,0.67936 0.501544,0.85066 0.623047,1.01953 0.127688,0.17746 0.150857,0.19687 0.212891,0.27343 -0.0328,0.90379 0.03437,1.6639 0.21875,2.38868 -0.0099,0.0728 -0.416024,3.06433 -0.416016,3.06445 8e-6,1.2e-4 0.701113,2.75573 0.701172,2.75586 5.9e-5,1.3e-4 1.101453,1.73815 1.101562,1.73828 2.2e-4,2.6e-4 1.722238,1.53098 1.722657,1.53125 8.37e-4,5.5e-4 1.278617,0.6843 1.597656,0.80078 0.319039,0.11648 0.515433,0.17071 0.673828,0.21289 0.633581,0.16875 0.742561,0.16125 0.890625,0.1836 0.104787,0.0158 0.09236,0.009 0.169922,0.0195 0.367788,0.68103 0.839943,1.35556 1.474609,1.99023 1.051295,1.05129 3.24385,2.3346 5.623047,2.33203 0.339136,-3.6e-4 0.560626,-0.1387 0.873047,-0.17773 1.310403,0.33078 2.753313,0.53005 4.242187,0.21094 1.373769,0.45811 3.044254,0.64481 5.097657,0.0351 0.063,-0.0187 0.09461,-0.0546 0.15625,-0.0742 0.451627,0.22945 0.758545,0.46758 1.759765,0.65235 1.518171,0.28016 4.860814,0.0122 7.056641,-2.1836 1.76023,-1.76024 2.463052,-4.29898 2.496094,-5.91406 0.03304,-1.61508 -0.283093,-2.61516 -0.546875,-3.40234 -0.01218,-0.0363 -0.02103,-0.0367 -0.0332,-0.0723 0.359905,-1.12517 0.436817,-2.15587 0.40625,-2.8418 -0.05881,-1.31972 -0.315327,-1.99083 -0.507813,-2.52539 -0.110643,-0.30727 -0.186742,-0.36473 -0.287109,-0.58984 1.095664,-1.73284 1.251945,-5.6194 0.191406,-8.05664 0.0011,-0.22095 0.05612,-0.37865 0.03906,-0.61719 -0.13011,-1.81937 -1.13127,-4.00042 -2.417969,-5.28711 -1.752929,-1.75294 -3.585413,-2.0929 -5.021485,-2.16406 -1.068039,-1.08208 -2.310745,-1.90472 -3.267578,-2.20117 -1.460819,-0.45261 -2.302416,-0.39242 -2.945312,-0.32422 -0.685689,-0.77383 -1.820264,-1.56836 -5.007813,-1.56836 z m -0.894531,4.48047 c 1.898687,0.68013 2.20616,1.71859 2.228516,1.74414 0.01474,0.0168 -0.03959,-0.13756 -0.800782,-0.83594 -0.225112,-0.20653 -0.927763,-0.58318 -1.427734,-0.9082 z m 10.802734,21.80273 c 0.0024,0.0316 0.0024,0.006 0.0059,0.0566 1.95e-4,0.003 -1.9e-4,0.0178 0,0.0215 -0.0018,-0.0219 -0.0041,-0.0582 -0.0059,-0.0781 z m 4.34961,2.82032 c 0.0046,-0.022 -0.0057,0.14515 0.01758,0.17382 -0.03113,0.0248 -0.04677,0.0635 -0.07813,0.0879 0.0048,-0.0329 0.05722,-0.24577 0.06055,-0.26171 z"
       transform="translate(-0.280633,4.1235464)" />
    <path
       transform="translate(-0.280633,4.1235464)"
       style="display:inline;opacity:0.4;fill:#fffea3;fill-opacity:1;fill-rule:evenodd;stroke:none;stroke-width:0.26458332px;stroke-linecap:butt;stroke-linejoin:miter;stroke-opacity:1;filter:url(#filter6857)"
       d="m 35.128906,158.75195 c -1.001983,-0.16932 -2.018709,-0.15453 -2.77539,0.0684 -1.323952,0.38999 -1.942576,0.9249 -2.378907,1.3418 -0.199782,-0.006 -0.346934,-0.0609 -0.564453,-0.0469 -1.446638,0.0931 -3.100616,0.89163 -4.033203,1.82422 -1.582023,1.58209 -1.649712,2.68589 -1.791015,3.38086 -0.05945,0.29238 -0.04381,0.42497 -0.06641,0.64258 -1.303704,0.66672 -2.723478,2.2928 -3.164062,3.80078 -0.444167,1.52024 -0.23329,2.60388 -0.05859,3.29297 0.349393,1.37818 0.70755,1.72336 0.933594,2.05469 0.119417,0.17504 0.143501,0.16525 0.234375,0.2832 0.03321,0.21188 0.08892,0.33095 0.140625,0.51758 -0.238236,0.44148 -0.485966,0.98736 -0.736328,1.87695 -0.267341,0.94992 -0.816178,2.80056 0.61914,5.25977 1.435319,2.45921 4.397483,3.24219 5.763672,3.24219 0.377894,0 0.610809,-0.17451 0.955078,-0.22266 0.742505,0.5354 1.740385,1.09094 3.248047,1.15625 0.273233,0.0118 0.500573,-0.12744 0.767578,-0.15625 0.374449,0.30806 0.879053,0.63807 1.648438,0.98047 0.76231,0.33925 1.901066,0.69216 3.351562,0.54687 1.450497,-0.14529 3.022779,-0.95051 3.94336,-1.87109 1.036645,-1.03665 1.529167,-2.09394 1.818359,-3.0957 0.755777,-0.0866 1.711364,-0.35231 3.097656,-1.8086 1.01247,-1.06359 1.744488,-2.96112 1.716797,-4.41406 -0.02114,-1.10901 -0.291577,-1.83338 -0.564453,-2.41016 0.07365,-0.14702 0.117552,-0.11255 0.193359,-0.29297 0.123569,-0.29407 0.243419,-0.64144 0.335938,-1.05664 0.09252,-0.41519 0.148449,-1.43862 0.148437,-1.43945 -2.3e-5,-0.002 -1.042059,-3.35801 -1.042968,-3.35937 -2.09e-4,-3.2e-4 -0.292549,-0.32224 -0.486329,-0.55664 0.09709,-0.36578 0.200729,-0.69025 0.25,-1.46875 0.03368,-0.53212 0.06534,-1.26098 -0.294921,-2.37891 -0.360266,-1.11793 -1.407372,-2.74415 -2.982422,-3.59961 -2.366075,-1.2851 -3.839906,-0.88561 -4.878907,-0.44531 -0.229119,-0.20478 -0.362998,-0.38338 -0.662109,-0.60547 -0.696818,-0.51739 -1.683563,-0.87169 -2.685547,-1.04102 z m -4.90039,7.37891 c 0.01905,0.006 0.110618,0.003 0.128906,0.008 0.388686,0.53363 0.77931,1.07035 0.779297,1.07031 -1e-6,0 0.0019,0.0827 0.002,0.0859 -0.315805,0.31879 -0.538365,0.60332 -0.804688,0.9043 -0.373402,-0.16538 -1.080384,-0.26455 -2.316406,-0.22656 0.28298,-0.40347 0.538786,-0.81796 0.970703,-1.17578 0.384975,-0.31894 0.817809,-0.46749 1.240235,-0.66602 z m -3.302735,0.85937 c -0.07092,0.34997 -0.06702,0.77176 -0.115234,1.14258 -0.206707,0.031 -0.482544,0.15413 -0.724609,0.21875 z m 3.257813,1.37696 c -0.293031,0.33646 -0.633991,0.6926 -0.90625,1.01953 -0.288123,0.34597 -0.466082,0.54317 -0.820313,1.03711 -0.08856,0.12348 -0.169321,0.20268 -0.445312,0.70508 -0.137996,0.2512 -0.412307,0.30848 -0.691407,1.98828 -0.03489,0.20997 -0.07811,0.75739 -0.07812,0.75781 -1.8e-5,4.2e-4 0.05073,1.09731 0.05078,1.09766 1.6e-5,1.2e-4 0.07809,0.28931 0.142578,0.52929 -0.01766,0.007 -0.08596,0.0352 -0.08594,0.0352 7.29e-4,-2.4e-4 -0.947145,0.23254 -1.128906,0.25586 -0.181761,0.0233 -0.278272,0.028 -0.353515,0.0332 -0.150487,0.0105 -0.207109,0.0126 -0.25,0.0137 -0.08578,0.002 -0.09133,0 -0.08398,0 -1.001128,0 -1.430099,-0.0888 -1.726562,-0.18359 -0.07958,-0.048 -0.148914,-0.13065 -0.246094,-0.2168 -0.104455,-0.73748 -0.11126,-1.59421 0.228515,-2.72265 0.0928,-0.3082 0.311387,-0.55756 0.458985,-0.84766 0.01868,0.0476 -0.0012,0.0186 0.01953,0.0703 0.398902,0.99727 0.627834,1.37157 0.53125,1.13867 -0.08003,-0.19298 -0.205048,-1.08747 -0.177734,-1.89843 0.547257,-0.81495 1.182056,-1.5322 1.80664,-1.92383 0.121607,-0.0763 0.164734,-0.0426 0.279297,-0.10547 -0.02246,0.34951 -0.103515,0.64002 -0.103515,1.01367 0,1.49843 0.106372,1.24077 0.197265,1.37891 -0.01262,-0.32648 -0.0064,-0.73141 0.166016,-1.47852 0.07497,-0.32482 0.269137,-0.76051 0.46875,-1.1875 0.442887,-0.16128 0.984216,-0.43588 1.283203,-0.48437 0.893465,-0.14492 1.179898,-0.068 1.464844,-0.0254 z m -6.546875,0.92969 c 0.01809,0.11748 0.03727,0.233 0.05664,0.3457 -0.144173,0.12996 -0.293646,0.20558 -0.43164,0.35156 0.09862,-0.25723 0.24589,-0.44597 0.375,-0.69726 z m 17.048828,0.65039 c -0.05214,-0.03 0.08666,-0.0552 0.359375,0.17773 -0.09442,-0.0463 -0.324374,-0.15762 -0.359375,-0.17773 z m -17.447266,3.08203 c 0.09355,-0.16233 0.167054,0.0166 0.08789,0.15234 -0.02083,0.0357 -0.09897,0.15371 -0.126953,0.19922 0.01784,-0.056 0.02173,-0.3215 0.03906,-0.35156 z"
       id="path6887"
       inkscape:connector-curvature="0"
       sodipodi:nodetypes="cccccccsccccsssccccsccccccccccccccccccccccccccccccccccccccccccccccccccccscccccccccccccccccc" />
  </g>
  <g
     inkscape:groupmode="layer"
     id="layer7"
     inkscape:label="5"
     style="display:inline"
     transform="translate(0,-143.93334)">
    <path
       transform="translate(-0.280633,4.1235464)"
       d="m 32.675781,151.3418 c -1.862252,0 -3.330137,0.47634 -4.609375,1.07226 -0.215805,0.0808 -2.855278,1.06826 -2.855468,1.06836 -1.98e-4,1.1e-4 -1.54665,1.04474 -1.546876,1.04492 -4.51e-4,3.7e-4 -1.111754,1.02323 -1.392578,1.34961 -0.22255,0.25866 -0.344885,0.42892 -0.46875,0.59766 -1.494088,0.99249 -2.409542,2.0096 -3.023437,2.97266 -1.111271,0.44879 -2.349895,1.17413 -3.628906,2.45312 a 10.755278,10.755278 0 0 0 -0.002,0 c -1.24e-4,1.2e-4 -2.228441,3.25178 -2.228516,3.25195 -7.6e-5,1.7e-4 -0.833957,2.99002 -0.833984,2.99024 -5.6e-5,4.3e-4 0.154163,3.62828 0.154296,3.6289 1.34e-4,6.3e-4 0.362597,1.31309 0.523438,1.7168 0.16084,0.40371 0.300458,0.69047 0.419922,0.92383 0.250565,0.48944 0.311683,0.52755 0.447265,0.73242 0.02583,0.66694 0.183642,1.14875 0.298829,1.73828 -0.166481,1.22383 -0.425788,3.13077 -0.425782,3.13086 9e-6,1.3e-4 0.964785,3.79284 0.964844,3.79297 5.9e-5,1.3e-4 1.515515,2.39245 1.515625,2.39258 2.19e-4,2.6e-4 2.370675,2.10715 2.371094,2.10742 8.38e-4,5.5e-4 1.756874,0.93954 2.195312,1.09961 0.438438,0.16007 0.710651,0.2332 0.927735,0.29102 0.110899,0.0295 0.06541,0.009 0.154296,0.0312 0.342067,0.4704 0.610996,0.95278 1.058594,1.40039 1.435887,1.43587 4.440271,3.19687 7.703125,3.19336 0.160868,-1.8e-4 0.257544,-0.0771 0.414063,-0.084 1.402485,0.28271 3.000297,0.35493 4.55664,0.14844 1.388189,0.35619 3.012724,0.41012 4.896485,0.0391 0.487195,0.17394 0.956937,0.35247 1.724609,0.49414 2.070775,0.38214 6.658028,0.0158 9.669922,-2.99609 2.369592,-2.36961 3.311704,-5.79246 3.355469,-7.93164 0.03613,-1.76613 -0.245435,-2.87501 -0.527344,-3.78321 0.19616,-1.01416 0.380974,-2.06462 0.351563,-2.7246 -0.07314,-1.64126 -0.377611,-2.4261 -0.621094,-3.10352 0.744983,-2.38469 0.82915,-5.68086 0.02734,-8.33398 -0.0051,-0.16026 0.03927,-0.26289 0.02734,-0.42969 -0.175904,-2.45973 -1.538361,-5.42119 -3.273437,-7.15625 -2.014039,-2.01406 -4.098458,-2.6392 -5.939453,-2.89844 -1.220485,-1.02375 -2.525587,-1.87781 -3.556641,-2.19727 -1.023223,-0.31702 -1.781823,-0.4123 -2.455078,-0.45898 -1.084333,-0.83058 -2.908731,-1.56445 -6.369141,-1.56445 z m 1.519531,5.31054 c 1.075158,0.62686 1.415314,1.04201 1.615235,1.40625 -0.01418,0.0104 -0.03484,0.0229 -0.04883,0.0332 -0.119324,-0.14466 -0.0012,-0.0693 -0.566407,-0.58789 -0.240812,-0.22094 -0.550683,-0.51975 -1,-0.85157 z m 1.816407,1.6543 c 0.02283,0.0473 0.202051,0.25351 0.210937,0.26367 0.01143,0.0131 -0.229556,-0.23031 -0.240234,-0.25 0.0094,-0.005 0.01967,-0.009 0.0293,-0.0137 z m -13.41211,10.36914 c -0.148818,0.0216 -0.372028,0.0681 -0.599609,0.11524 -0.02446,-0.0458 0.282209,-0.0551 0.599609,-0.11524 z m 22.914063,11.64258 c 0.0026,0.0345 0.0078,0.12565 0.0078,0.13672 -0.0033,-0.04 -0.0047,-0.1015 -0.0078,-0.13672 z m 0.02148,1.18945 c 2.9e-5,0.005 0.0019,0.0489 0.002,0.0508 -6.65e-4,2.9e-4 -0.0032,0.002 -0.0039,0.002 -1.89e-4,-0.0143 0.0022,-0.0386 0.002,-0.0527 z m -0.0039,0.13672 c -0.0032,0.037 -0.01411,0.16827 -0.02734,0.32031 9.54e-4,-0.0938 0.0242,-0.23042 0.02344,-0.31836 0.0025,-0.001 0.0014,-9.3e-4 0.0039,-0.002 z m 4.279297,2.3418 c 6.2e-4,-0.003 0.206348,0.27131 -0.02734,0.97851 -0.08288,0.0811 -0.172656,0.15178 -0.257812,0.23047 0.08132,-0.40792 0.28453,-1.20598 0.285156,-1.20898 z"
       id="path6895"
       style="display:inline;opacity:0.6;fill:#5f5031;fill-opacity:1;fill-rule:evenodd;stroke:none;stroke-width:0.26458332px;stroke-linecap:butt;stroke-linejoin:miter;stroke-opacity:1;filter:url(#filter6853)"
       inkscape:original="M 32.675781 162.0957 C 32.044515 162.0957 31.664695 163.76891 31.353516 164.08008 C 31.074684 164.35891 30.460674 162.92157 30.427734 162.88867 C 30.398931 162.85987 29.427401 165.28582 29.369141 165.40234 C 28.354739 167.43114 27.648438 163.73108 27.648438 166.32812 L 27.648438 167.91602 C 24.012673 166.46172 27.834581 170.16406 26.722656 170.16406 C 25.938265 170.16406 23.219312 169.03851 22.753906 169.50391 C 22.722291 169.53553 24.268078 171.11403 25.134766 172.41406 C 27.495403 175.95501 21.835418 173.67357 25.664062 175.58789 C 26.389943 175.95083 29.13647 176.98603 28.177734 177.70508 C 27.40029 178.28817 25.35039 179.29297 24.341797 179.29297 C 23.810797 179.29297 25.398687 179.42578 25.929688 179.42578 C 26.604582 179.42578 30.300379 178.90195 30.691406 179.29297 C 31.154205 179.75577 29.322949 182.55341 30.294922 183.52539 C 30.756747 183.98721 31.386938 180.51583 31.486328 180.61523 C 31.896771 181.02567 32.808186 184.32052 33.601562 183.92383 C 35.127288 183.16097 34.780219 181.13173 34.792969 181.14453 C 35.552114 181.90367 36.207216 182.69969 37.041016 183.39453 C 39.504467 185.4474 38.887743 181.54781 39.6875 180.74805 C 40.103432 180.33212 43.631544 184.7415 44.052734 184.32031 C 45.174748 183.19829 41.363271 179.11526 42.068359 177.70508 C 42.294054 177.25369 43.8094 178.34489 44.052734 178.10156 C 44.537763 177.61653 40.541018 172.87109 40.083984 172.41406 C 39.83757 172.16764 43.69347 170.90892 44.052734 170.69336 C 45.997366 169.52658 41.804688 169.55272 41.804688 169.10742 C 41.804688 168.39848 44.150123 166.82199 43.392578 166.06445 C 43.10672 165.77859 40.05953 168.44531 39.6875 168.44531 C 39.686097 168.44531 39.558388 167.15215 39.554688 167.12305 C 39.422961 166.06924 38.70402 164.69799 38.365234 163.68164 C 38.250085 163.33619 35.720654 164.87305 35.455078 164.87305 C 34.190965 164.87305 33.046037 162.0957 32.675781 162.0957 z "
       inkscape:radius="10.754203"
       sodipodi:type="inkscape:offset" />
    <path
       transform="translate(-0.280633,4.1235464)"
       sodipodi:type="inkscape:offset"
       inkscape:radius="8.6189632"
       inkscape:original="M 34.130859 164.87305 C 34.130859 164.39811 33.768327 165.75061 33.601562 166.19531 C 33.164571 167.36062 32.808594 168.92872 32.808594 170.16406 C 32.808594 170.64913 33.293662 171.61914 32.808594 171.61914 C 32.59403 171.61914 30.169032 165.92471 29.765625 166.32812 C 29.406709 166.68705 29.871404 169.24004 30.029297 169.63477 C 30.324553 170.37292 30.851897 170.99113 30.691406 171.88477 C 29.992589 172.40888 28.216199 170.37055 27.119141 169.90039 C 26.626051 169.6891 24.996738 169.63477 25.533203 169.63477 C 26.00542 169.63477 28.972656 171.71982 28.972656 172.14844 C 28.972656 172.33713 27.01292 171.1449 26.326172 171.48828 C 26.093256 171.60474 28.576224 173.64913 28.707031 173.73633 C 31.786398 175.78924 26.851247 172.93491 27.78125 174.79492 C 27.999073 175.23056 29.236328 174.44066 29.236328 174.92773 C 29.236328 176.28757 25.548758 180.08594 27.251953 180.08594 C 29.13205 180.08594 30.455353 176.04352 30.691406 176.51562 C 30.929732 176.99228 31.486022 181.27764 31.75 181.01367 C 32.279489 180.48418 32.576962 179.45857 32.808594 178.76367 C 32.907196 178.46786 32.629591 177.83789 32.941406 177.83789 C 33.416208 177.83789 35.950476 183.16281 36.777344 182.33594 C 38.000933 181.11235 35.302205 176.53568 35.455078 176.38281 C 36.229254 175.60863 46.290063 179.6841 38.894531 175.98633 C 38.260023 175.66908 36.851393 175.07779 36.511719 174.39844 C 36.409264 174.19353 38.167802 173.92554 38.365234 173.86914 C 39.449189 173.55944 40.29252 173.03832 41.275391 172.54688 C 41.4176 172.47578 41.830872 172.28125 41.671875 172.28125 C 41.354381 172.28125 36.115234 173.37047 36.115234 172.81055 C 36.115234 171.68904 38.771718 169.35826 39.423828 168.44531 C 39.861811 167.83213 40.890778 165.99114 40.216797 166.32812 C 38.599756 167.13665 36.922953 170.28212 35.585938 171.61914 C 34.855333 172.34974 32.870958 174.73255 33.601562 174.00195 C 34.18198 173.42153 34.130859 166.20556 34.130859 164.87305 z "
       style="display:inline;opacity:0.2;fill:#fffea3;fill-opacity:1;fill-rule:evenodd;stroke:none;stroke-width:0.26458332px;stroke-linecap:butt;stroke-linejoin:miter;stroke-opacity:1;filter:url(#filter6857)"
       id="path6897"
       d="m 35.523438,156.41016 c -1.391094,-0.23509 -2.801221,-0.2137 -3.851563,0.0957 -1.218563,0.35895 -1.98053,0.80497 -2.570313,1.24219 -1.965769,0.17317 -4.171834,1.22846 -5.429687,2.48633 -2.159899,2.15998 -2.256902,3.6458 -2.441406,4.57226 -1.394707,1.12608 -2.718721,2.6634 -3.191407,4.28125 -0.616071,2.10862 -0.321657,3.60959 -0.08008,4.5625 0.368235,1.45251 0.714646,2.00033 1.00586,2.41016 -0.140948,0.37236 -0.268733,0.5459 -0.417969,1.07617 -0.350657,1.24596 -1.111903,3.75476 0.857422,7.1289 1.969325,3.37415 6.032963,4.43946 7.847656,4.43946 0.179454,0 0.320671,-0.0499 0.494141,-0.0586 0.948936,0.50361 2.110075,0.92546 3.605468,0.99024 0.130692,0.006 0.237256,-0.0728 0.367188,-0.0742 0.372508,0.23036 0.620496,0.44602 1.171875,0.69141 1.029724,0.45826 2.58261,0.94343 4.572266,0.74414 1.989655,-0.1993 4.149713,-1.30987 5.408203,-2.56836 0.929329,-0.92933 1.527049,-1.86404 1.964844,-2.78125 0.847265,-0.35056 1.820366,-0.93103 2.99414,-2.16406 1.404337,-1.47525 2.419266,-4.10981 2.38086,-6.125 -0.01778,-0.93279 -0.177336,-1.67089 -0.371094,-2.3125 0.09705,-0.28125 0.202668,-0.53112 0.279297,-0.875 0.12842,-0.57632 0.207043,-1.99918 0.207031,-2 -2.3e-5,-0.002 -1.312113,-4.22884 -1.400391,-4.51172 0.0328,-0.28705 0.09181,-0.31544 0.115235,-0.68555 0.04595,-0.72595 0.0913,-1.72755 -0.40625,-3.27149 -0.49755,-1.54393 -1.946285,-3.79607 -4.126954,-4.98046 -2.445542,-1.32826 -4.234899,-1.33208 -5.642578,-1.01758 -0.938046,-0.60089 -2.095614,-1.08433 -3.341796,-1.29492 z m -4.666016,6.95312 c 0.101261,0.006 0.09481,0.0368 0.189453,0.0449 -0.04332,0.0609 -0.110442,0.14838 -0.154297,0.20703 -0.03136,0.042 -0.01377,0.0211 -0.04492,0.0625 -0.157543,-0.0631 -0.463274,-0.13864 -0.660156,-0.20898 0.02026,-0.007 0.04033,-0.0247 0.06055,-0.0312 0.188261,-0.006 0.442729,-0.0834 0.609375,-0.0742 z m -0.759766,0.20703 c 0.344264,0.0511 0.512701,0.12144 0.695313,0.17969 -0.880348,1.164 -1.716391,2.191 -1.300781,1.77539 -0.03435,0.0344 -0.04481,0.0523 -0.07813,0.0859 -0.591637,-0.0656 -1.060381,-0.16831 -2.234374,-0.0606 -0.07671,0.007 -0.191551,0.0379 -0.273438,0.0469 0.206639,-0.21508 0.301485,-0.45815 0.542969,-0.65821 0.789613,-0.65417 1.682841,-1.06071 2.546875,-1.36718 0.02193,0.003 0.08058,-0.005 0.101562,-0.002 z m -1.027344,2.42774 c -0.624087,0.66111 -1.164831,1.26499 -1.648437,1.8457 -0.303708,0.36469 -0.470625,0.53916 -0.925781,1.17383 -0.113789,0.15867 -0.219885,0.25799 -0.59961,0.94922 -0.189862,0.34561 -0.569647,0.42432 -0.957031,2.75586 -0.04842,0.29144 -0.107404,1.05231 -0.107422,1.05273 -1.7e-5,4.2e-4 0.07027,1.52114 0.07031,1.52149 4.7e-5,3.4e-4 0.568247,2.11886 0.568359,2.11914 3.7e-5,9e-5 0.287364,0.45641 0.515625,0.82031 -0.153092,0.01 -0.252327,0.0142 -0.30664,0.0156 -0.125915,0.003 -0.143644,0.002 -0.146485,0.002 -2.316007,0 -2.755859,-0.27481 -3,-0.48829 -0.07672,-0.0727 -0.08865,-0.0653 -0.298828,-0.3164 -0.164282,-0.19627 -0.583643,-0.37412 -0.972656,-0.875 -0.289572,-1.13076 -0.372815,-2.59455 0.216797,-4.55274 0.04215,-0.13998 0.157882,-0.24697 0.208984,-0.38476 0.04197,0.25124 -0.04516,0.23672 0.339844,1.19922 0.496619,1.24156 0.734934,1.63087 0.542968,1.16797 -0.178495,-0.43042 -0.524984,-1.91345 -0.361328,-3.33203 0.614779,-1.14284 1.353256,-2.08413 2.205078,-2.78711 -0.09119,0.73468 -0.224609,1.41065 -0.224609,2.27929 0,3.11551 0.462371,3.16336 0.349609,2.59961 -0.05638,-0.28187 -0.481911,-0.82411 0.07617,-3.24219 0.159567,-0.69137 0.566379,-1.60641 1.148438,-2.54296 1.015292,-0.51257 1.969088,-0.87156 2.568359,-0.96875 0.448435,-0.0727 0.439077,0.004 0.738281,-0.0117 z m -7.933593,2.80664 c 7.89e-4,0.007 0.0012,0.0169 0.002,0.0234 -0.01395,0.0167 -0.02129,0.0378 -0.03516,0.0547 0.0118,-0.0283 0.02114,-0.0498 0.0332,-0.0781 z m 0.103515,3.16211 c -0.03422,0.0587 -0.233464,0.36587 -0.328125,0.51367 0.192038,-0.53606 0.383155,-0.60806 0.328125,-0.51367 z" />
  </g>
  <g
     inkscape:groupmode="layer"
     id="layer9"
     inkscape:label="6"
     style="display:inline"
     transform="translate(0,-143.93334)">
    <path
       sodipodi:type="inkscape:offset"
       inkscape:radius="14.281989"
       inkscape:original="M 32.675781 162.0957 C 32.044515 162.0957 31.664695 163.76891 31.353516 164.08008 C 31.074684 164.35891 30.460674 162.92157 30.427734 162.88867 C 30.398931 162.85987 29.427401 165.28582 29.369141 165.40234 C 28.354739 167.43114 27.648438 163.73108 27.648438 166.32812 L 27.648438 167.91602 C 24.012673 166.46172 27.834581 170.16406 26.722656 170.16406 C 25.938265 170.16406 23.219312 169.03851 22.753906 169.50391 C 22.722291 169.53553 24.268078 171.11403 25.134766 172.41406 C 27.495403 175.95501 21.835418 173.67357 25.664062 175.58789 C 26.389943 175.95083 29.13647 176.98603 28.177734 177.70508 C 27.40029 178.28817 25.35039 179.29297 24.341797 179.29297 C 23.810797 179.29297 25.398687 179.42578 25.929688 179.42578 C 26.604582 179.42578 30.300379 178.90195 30.691406 179.29297 C 31.154205 179.75577 29.322949 182.55341 30.294922 183.52539 C 30.756747 183.98721 31.386938 180.51583 31.486328 180.61523 C 31.896771 181.02567 32.808186 184.32052 33.601562 183.92383 C 35.127288 183.16097 34.780219 181.13173 34.792969 181.14453 C 35.552114 181.90367 36.207216 182.69969 37.041016 183.39453 C 39.504467 185.4474 38.887743 181.54781 39.6875 180.74805 C 40.103432 180.33212 43.631544 184.7415 44.052734 184.32031 C 45.174748 183.19829 41.363271 179.11526 42.068359 177.70508 C 42.294054 177.25369 43.8094 178.34489 44.052734 178.10156 C 44.537763 177.61653 40.541018 172.87109 40.083984 172.41406 C 39.83757 172.16764 43.69347 170.90892 44.052734 170.69336 C 45.997366 169.52658 41.804688 169.55272 41.804688 169.10742 C 41.804688 168.39848 44.150123 166.82199 43.392578 166.06445 C 43.10672 165.77859 40.05953 168.44531 39.6875 168.44531 C 39.686097 168.44531 39.558388 167.15215 39.554688 167.12305 C 39.422961 166.06924 38.70402 164.69799 38.365234 163.68164 C 38.250085 163.33619 35.720654 164.87305 35.455078 164.87305 C 34.190965 164.87305 33.046037 162.0957 32.675781 162.0957 z "
       style="display:inline;opacity:0.5;fill:#5f5031;fill-opacity:1;fill-rule:evenodd;stroke:none;stroke-width:0.26458332px;stroke-linecap:butt;stroke-linejoin:miter;stroke-opacity:1;filter:url(#filter6853)"
       id="path6907"
       d="m 32.675781,147.81445 c -2.520094,0 -4.497517,0.65443 -6.203125,1.47071 -1.10519,0.41376 -2.970554,1.11319 -2.970703,1.11328 -1.98e-4,1.1e-4 -2.056415,1.38458 -2.056641,1.38476 -4.51e-4,3.7e-4 -1.474896,1.35974 -1.847656,1.79297 -0.148494,0.17258 -0.204969,0.26007 -0.314453,0.39844 -1.245829,0.90991 -2.221453,1.83715 -2.908203,2.74023 -1.182127,0.60661 -2.423174,1.39194 -3.720703,2.68946 a 14.283417,14.283417 0 0 0 0,0.002 c -1.24e-4,1.2e-4 -2.9608621,4.31819 -2.9609376,4.31836 -7.55e-5,1.7e-4 -1.1073941,3.97244 -1.1074219,3.97266 -5.55e-5,4.3e-4 0.2049443,4.81578 0.2050781,4.8164 1.338e-4,6.2e-4 0.4818156,1.74537 0.6953125,2.28125 0.2134969,0.53588 0.3981542,0.91503 0.5566409,1.22461 0.139189,0.27189 0.140014,0.21427 0.248047,0.40625 0.02691,0.23174 0.09344,0.39976 0.128906,0.62305 -0.21399,1.57314 -0.4355517,3.19915 -0.435547,3.19922 8.3e-6,1.2e-4 1.281191,5.03502 1.28125,5.03515 5.9e-5,1.3e-4 2.011609,3.17761 2.011719,3.17774 2.19e-4,2.6e-4 3.148018,2.79855 3.148437,2.79883 8.38e-4,5.4e-4 2.334285,1.24659 2.916016,1.45898 0.104622,0.0382 0.129601,0.039 0.220703,0.0703 0.237571,0.27479 0.365214,0.56834 0.632812,0.83594 1.897444,1.89742 5.879775,4.22927 10.203126,4.22461 0.270709,-2.9e-4 0.494481,-0.0655 0.755859,-0.0801 1.195828,0.16004 2.412142,0.19356 3.681641,0.11133 1.481614,0.34178 3.184532,0.36424 5.101562,0.10547 0.475169,0.13565 0.781028,0.2882 1.410156,0.40429 2.733968,0.50453 8.813413,0.0206 12.804688,-3.9707 3.1009,-3.10091 4.330086,-7.58731 4.386718,-10.35547 0.03445,-1.68389 -0.160075,-2.86112 -0.40039,-3.85937 0.172248,-1.11026 0.255902,-2.13288 0.222656,-2.87891 -0.06616,-1.48459 -0.271228,-2.41848 -0.49414,-3.18945 0.491367,-2.61115 0.50572,-5.73126 -0.101563,-8.4336 -0.0061,-0.1283 0.03089,-0.20642 0.02148,-0.33789 -0.230862,-3.22823 -2.021737,-7.12722 -4.294921,-9.40039 -2.345336,-2.34535 -4.913453,-3.37144 -7.166016,-3.83398 -1.333639,-0.98388 -2.673032,-1.7908 -3.783203,-2.13477 -0.773751,-0.23973 -1.24225,-0.23904 -1.853516,-0.3457 -1.473595,-0.9855 -3.795468,-1.83594 -8.013672,-1.83594 z m 1.699219,4.93946 c 0.789351,0.27998 1.299713,0.5963 1.833984,0.91992 -0.01416,0.008 -0.03892,0.0191 -0.05273,0.0273 -0.402707,-0.28727 -1.147272,-0.62393 -1.78125,-0.94726 z m 3.027344,1.67773 c 0.965278,0.87615 1.393219,1.72337 1.474609,1.81641 0.0897,0.10253 0.04526,-0.11238 -1.296875,-1.34375 -0.122128,-0.11205 -0.360387,-0.29612 -0.509766,-0.4336 0.0958,-0.0165 0.228587,-0.024 0.332032,-0.0391 z m -15.517578,10.79492 c -0.282113,0.0437 -0.537829,0.0744 -1.046875,0.19922 -0.01165,0.003 -0.0331,0.0108 -0.04492,0.0137 0.0676,-0.0911 0.600277,-0.12119 1.091797,-0.21289 z m 31.83789,0.0957 0.0039,0.0293 c -3.86e-4,-0.003 -0.0016,-0.003 -0.002,-0.006 -0.0083,-0.0651 0.0082,0.0561 -0.002,-0.0234 z m -0.154297,11.7539 c -0.006,0.0171 -0.0057,0.0455 -0.01172,0.0625 -0.0562,0.0366 -0.229134,0.20254 -0.257813,0.23828 -0.198461,0.24738 0.123138,-0.13111 0.269531,-0.30078 z m -4.541015,2.92969 c 0.0052,0.0592 0.01563,0.22852 0.01563,0.25391 -0.0061,-0.0783 -0.0098,-0.18878 -0.01563,-0.25391 z m 0.03125,1.41992 c 5.09e-4,0.084 0.0039,0.30289 0.0039,0.30274 8e-6,-2e-4 -0.113299,1.30872 -0.113281,1.30859 0,0 -0.0019,0.008 -0.002,0.008 0.03641,-0.55354 0.119341,-1.19095 0.111328,-1.61914 z m 4.205078,3.28125 c -0.01756,0.0841 0.240027,0.76058 -0.458984,2.20899 -0.02655,0.0283 -0.05915,0.05 -0.08594,0.0781 0.403961,-1.44054 0.56977,-2.40609 0.544922,-2.28711 z"
       transform="translate(-0.280633,4.1235464)" />
  </g>
</svg>
